<svg id="Layer_1" data-name="Layer 1" xmlns="http://www.w3.org/2000/svg" viewBox="0 0 400 300"><rect x="117.45" y="62.86" width="166.92" height="122.47" fill="#e6e6e6"/><rect x="128" y="76.85" width="79.54" height="94.79" fill="#f2f2f2"/><rect x="177.56" y="76.85" width="96.34" height="94.79" fill="#24285b"/><rect x="219.42" y="118.46" width="24.72" height="1.73" fill="#68e1fd"/><rect x="230.43" y="123" width="24.72" height="1.73" fill="#ffd200"/><rect x="213.47" y="114.29" width="20.74" height="1.73" fill="#68e1fd"/><rect x="238.52" y="114.29" width="20.74" height="1.73" fill="#68e1fd"/><rect x="219.42" y="109.47" width="18.54" height="1.73" fill="#ffd200"/><rect x="242.79" y="109.47" width="18.54" height="1.73" fill="#ffd200"/><rect x="205.77" y="118.46" width="9.3" height="1.73" fill="#fff"/><rect x="215.03" y="123" width="9.3" height="1.73" fill="#fff"/><rect x="199.82" y="114.29" width="9.3" height="1.73" fill="#fff"/><rect x="199.82" y="101.15" width="9.3" height="1.73" fill="#fff"/><rect x="205.77" y="105.47" width="9.3" height="1.73" fill="#fff"/><rect x="219.42" y="105.47" width="18.54" height="1.73" fill="#ffd200"/><rect x="242.79" y="105.47" width="18.54" height="1.73" fill="#ffd200"/><rect x="205.77" y="109.47" width="9.3" height="1.73" fill="#fff"/><rect x="212.83" y="101.15" width="19.15" height="1.73" fill="#68e1fd"/><rect x="135.87" y="101.15" width="4.97" height="1.73" fill="#c9c9c9"/><rect x="143.87" y="101.15" width="14.12" height="1.73" fill="#a5a5a5"/><rect x="161.71" y="101.15" width="8.57" height="1.73" fill="#fff"/><rect x="135.87" y="96.64" width="9.95" height="1.73" fill="#c9c9c9"/><rect x="149.79" y="96.64" width="20.49" height="1.73" fill="#a5a5a5"/><rect x="135.87" y="105.43" width="9.95" height="1.73" fill="#fff"/><rect x="149.79" y="105.43" width="20.49" height="1.73" fill="#a5a5a5"/><rect x="135.87" y="109.53" width="6.91" height="1.73" fill="#fff"/><rect x="163.41" y="109.53" width="6.91" height="1.73" fill="#c9c9c9"/><rect x="145.53" y="109.53" width="14.23" height="1.73" fill="#a5a5a5"/><rect x="135.87" y="118.71" width="4.97" height="1.73" fill="#c9c9c9"/><rect x="143.87" y="118.71" width="14.12" height="1.73" fill="#a5a5a5"/><rect x="161.71" y="118.71" width="8.57" height="1.73" fill="#fff"/><rect x="135.87" y="114.2" width="9.95" height="1.73" fill="#c9c9c9"/><rect x="149.79" y="114.2" width="20.49" height="1.73" fill="#a5a5a5"/><rect x="135.87" y="122.99" width="9.95" height="1.73" fill="#fff"/><rect x="149.79" y="122.99" width="20.49" height="1.73" fill="#a5a5a5"/><rect x="135.87" y="127.09" width="6.91" height="1.73" fill="#fff"/><rect x="163.41" y="127.09" width="6.91" height="1.73" fill="#c9c9c9"/><rect x="145.53" y="127.09" width="14.23" height="1.73" fill="#a5a5a5"/><rect x="135.87" y="135.93" width="4.97" height="1.73" fill="#c9c9c9"/><rect x="143.87" y="135.93" width="14.12" height="1.73" fill="#a5a5a5"/><rect x="161.71" y="135.93" width="8.57" height="1.73" fill="#fff"/><rect x="135.87" y="131.42" width="9.95" height="1.73" fill="#c9c9c9"/><rect x="149.79" y="131.42" width="20.49" height="1.73" fill="#a5a5a5"/><rect x="135.87" y="140.21" width="9.95" height="1.73" fill="#fff"/><rect x="149.79" y="140.21" width="20.49" height="1.73" fill="#a5a5a5"/><rect x="135.87" y="144.31" width="6.91" height="1.73" fill="#fff"/><rect x="163.41" y="144.31" width="6.91" height="1.73" fill="#c9c9c9"/><rect x="145.53" y="144.31" width="14.23" height="1.73" fill="#a5a5a5"/><rect x="235.99" y="101.15" width="13.6" height="1.73" fill="#68e1fd"/><rect x="219.42" y="145.27" width="24.72" height="1.73" fill="#68e1fd"/><rect x="230.43" y="149.81" width="24.72" height="1.73" fill="#ffd200"/><rect x="213.47" y="141.1" width="20.74" height="1.73" fill="#68e1fd"/><rect x="238.52" y="141.1" width="20.74" height="1.73" fill="#68e1fd"/><rect x="219.42" y="136.29" width="18.54" height="1.73" fill="#ffd200"/><rect x="242.79" y="136.29" width="18.54" height="1.73" fill="#ffd200"/><rect x="205.77" y="145.27" width="9.3" height="1.73" fill="#fff"/><rect x="215.03" y="149.81" width="9.3" height="1.73" fill="#fff"/><rect x="199.82" y="141.1" width="9.3" height="1.73" fill="#fff"/><rect x="199.82" y="127.96" width="9.3" height="1.73" fill="#fff"/><rect x="205.77" y="132.28" width="9.3" height="1.73" fill="#fff"/><rect x="219.42" y="132.28" width="18.54" height="1.73" fill="#ffd200"/><rect x="242.79" y="132.28" width="18.54" height="1.73" fill="#ffd200"/><rect x="205.77" y="136.29" width="9.3" height="1.73" fill="#fff"/><rect x="212.83" y="127.96" width="19.15" height="1.73" fill="#68e1fd"/><rect x="235.99" y="127.96" width="13.6" height="1.73" fill="#68e1fd"/><rect x="202.07" y="68.23" width="18.66" height="2.74" fill="#c9c9c9"/><circle cx="197.01" cy="69.51" r="2.25" fill="#a5a5a5"/><path d="M199.31,85.94l-3.78,1.38,3.78,1.38v1.41l-5.41-2V86.58l5.41-2Z" fill="#fff"/><path d="M199.82,90.27l1-1.22a1.82,1.82,0,0,0,1.48.87c.74,0,1.12-.44,1.12-1.32V84.82h-2.79V83.35h4.62V88.5c0,2-1,2.93-2.86,2.93A3.2,3.2,0,0,1,199.82,90.27Z" fill="#fff"/><path d="M212.37,87.81v3.48h-1.66v-.76a2,2,0,0,1-1.86.86c-1.43,0-2.28-.8-2.28-1.85s.76-1.83,2.62-1.83h1.41c0-.76-.46-1.21-1.41-1.21a2.94,2.94,0,0,0-1.76.57l-.64-1.24a4.76,4.76,0,0,1,2.64-.73C211.29,85.1,212.37,86,212.37,87.81Zm-1.77,1.55v-.62h-1.22c-.83,0-1.09.31-1.09.72s.38.73,1,.73A1.31,1.31,0,0,0,210.6,89.36Z" fill="#fff"/><path d="M219.92,85.19l-2.58,6.1h-1.83L213,85.19h1.83l1.69,4.15,1.75-4.15Z" fill="#fff"/><path d="M225.85,87.81v3.48h-1.66v-.76a2,2,0,0,1-1.86.86c-1.43,0-2.28-.8-2.28-1.85s.76-1.83,2.62-1.83h1.41c0-.76-.46-1.21-1.41-1.21a2.94,2.94,0,0,0-1.76.57l-.64-1.24a4.78,4.78,0,0,1,2.64-.73C224.77,85.1,225.85,86,225.85,87.81Zm-1.77,1.55v-.62h-1.22c-.83,0-1.09.31-1.09.72s.38.73,1,.73A1.31,1.31,0,0,0,224.08,89.36Z" fill="#fff"/><path d="M232.74,86.58v1.48l-5.4,2V88.7l3.78-1.38-3.78-1.38V84.53Z" fill="#fff"/><circle cx="191.14" cy="102.09" r="1.29" fill="#fff"/><circle cx="191.14" cy="106.17" r="1.29" fill="#fff"/><circle cx="191.14" cy="110.25" r="1.29" fill="#fff"/><circle cx="191.14" cy="115.58" r="1.29" fill="#fff"/><circle cx="191.14" cy="119.66" r="1.29" fill="#fff"/><circle cx="191.14" cy="123.74" r="1.29" fill="#fff"/><circle cx="191.14" cy="128.95" r="1.29" fill="#fff"/><circle cx="191.14" cy="133.03" r="1.29" fill="#fff"/><circle cx="191.14" cy="137.11" r="1.29" fill="#fff"/><circle cx="191.14" cy="142.47" r="1.29" fill="#fff"/><circle cx="191.14" cy="146.55" r="1.29" fill="#fff"/><circle cx="191.14" cy="150.63" r="1.29" fill="#fff"/><rect x="135.87" y="151.54" width="34.45" height="15.15" fill="#e6e6e6"/><circle cx="138.56" cy="84.44" r="2.11" fill="#24285b"/><circle cx="144.83" cy="84.44" r="2.11" fill="#68e1fd"/><circle cx="150.73" cy="84.44" r="2.11" fill="#ffd200"/><polygon points="284.37 185.33 204.24 185.33 195.87 185.33 117.66 185.33 86.48 239.84 195.87 239.84 204.24 239.84 315.55 239.84 284.37 185.33" fill="#c9c9c9"/><polygon points="128 191.5 116.02 215.03 287.43 215.03 275.51 191.5 128 191.5" fill="#e6e6e6"/><polygon points="174.02 219.53 170.29 234.03 231.78 234.03 227.34 219.53 174.02 219.53" fill="#e6e6e6"/><rect x="86.48" y="239.84" width="229.07" height="7.64" fill="#e6e6e6"/></svg>